<?xml version="1.0" encoding="UTF-8" standalone="no"?>
<!-- Created with Inkscape (http://www.inkscape.org/) -->

<svg
   width="11.461219mm"
   height="11.461219mm"
   viewBox="0 0 11.461219 11.461219"
   version="1.1"
   id="svg1"
   xml:space="preserve"
   xmlns="http://www.w3.org/2000/svg"
   xmlns:svg="http://www.w3.org/2000/svg"><defs
     id="defs1"><linearGradient
       id="swatch32"><stop
         style="stop-color:#000000;stop-opacity:1;"
         offset="0"
         id="stop32" /></linearGradient><linearGradient
       id="swatch9"><stop
         style="stop-color:#000000;stop-opacity:1;"
         offset="0"
         id="stop9" /></linearGradient></defs><g
     id="layer1"
     transform="translate(-105.5706,-97.806114)"><g
       style="fill:none"
       id="g1"
       transform="matrix(0.26458333,0,0,0.26458333,100.3726,95.483023)"><g
         id="g37"><path
           d="m 29.1944,24.7263 c -0.8721,-3.0728 -5.67186,2.20811 -8.74886,2.20811 0,0 4.69646,-8.24491 9.45816,-8.24491 3.561,0 6.6907,2.3592 7.6689,5.7812 L 43.58,45.4835 h 0.0037 c 0.8723,3.0728 6.293725,-0.156617 9.370725,-0.156617 0,0 -5.318325,6.193417 -10.080025,6.193417 -0.0235,0 -0.0466,-0.0106 -0.0701,-0.0121 -3.5316,-0.0309 -6.627,-2.3789 -7.5988,-5.7782 L 29.2006,24.7263 Z"
           fill="#ced7e1"
           id="path2"
           style="fill:#1d1b21;fill-opacity:1;stroke:none;stroke-opacity:1" /><path
           d="m 59.5166,24.0954 c 0,3.1295 -2.5384,5.6664 -5.6698,5.6664 -3.1314,0 -5.6699,-2.5369 -5.6699,-5.6664 0,-3.1294 2.5385,-5.6663 5.6699,-5.6663 3.1314,0 5.6698,2.5369 5.6698,5.6663 z"
           fill="#a7f3ae"
           id="path3"
           style="fill:#f2c3c2;fill-opacity:1" /><path
           style="fill:#1d1b21;fill-opacity:1"
           d="m 37.6509,25.11146 4.91181,-12.37179 c 0,0 4.28949,-9.38714 5.96798,0.746 1.6785,10.13313 -2.405053,-0.01115 -2.405053,-0.01115 0,0 -0.578937,-1.232177 -1.076267,0.446313 -0.49733,1.67849 -6.15448,15.91461 -6.15448,15.91461 z"
           id="path1" /><path
           style="fill:#1d1b21;fill-opacity:1;stroke-width:1.44088"
           d="m 31.642853,22.612913 c 0,0 0.26248,29.480786 -3.567095,29.485322 -2.266153,0.0027 0.791428,-28.006512 0.791428,-28.006512 z"
           id="path1-8" /></g></g></g></svg>
